<svg aria-hidden="true" focusable="false" data-prefix="fas" data-icon="piano-keyboard" class="svg-inline--fa fa-piano-keyboard fa-w-18" role="img" xmlns="http://www.w3.org/2000/svg" viewBox="0 0 576 512"><path fill="currentColor" d="M544 63H32A32 32 0 0 0 0 95v320a32 32 0 0 0 32 32h512a32 32 0 0 0 32-32V95a32 32 0 0 0-32-32zM144 383H64V223h64v80a16 16 0 0 0 16 16zm128 0h-96v-64a16 16 0 0 0 16-16v-80h64v80a16 16 0 0 0 16 16zm128 0h-96v-64a16 16 0 0 0 16-16v-80h64v80a16 16 0 0 0 16 16zm112 0h-80v-64a16 16 0 0 0 16-16v-80h64z"></path></svg>